<?xml version="1.0" standalone="no"?>
<!DOCTYPE svg PUBLIC "-//W3C//DTD SVG 20010904//EN"
 "http://www.w3.org/TR/2001/REC-SVG-20010904/DTD/svg10.dtd">
<svg version="1.0" xmlns="http://www.w3.org/2000/svg"
 width="3264.000000pt" height="3264.000000pt" viewBox="0 0 3264.000000 3264.000000"
 preserveAspectRatio="xMidYMid meet">

<g transform="translate(0.000000,3264.000000) scale(0.100000,-0.100000)"
fill="#000000" stroke="none">
<path d="M10 16325 l0 -16315 16315 0 16315 0 0 16315 0 16315 -16315 0
-16315 0 0 -16315z m16032 7601 c424 -81 778 -387 907 -782 56 -173 56 -174
56 -1014 0 -872 4 -826 -77 -990 -34 -69 -58 -102 -132 -176 -105 -105 -202
-159 -345 -195 -118 -30 -282 -24 -393 14 -274 94 -460 333 -536 688 -11 52
-24 126 -27 164 -6 63 -11 74 -45 110 -99 106 -132 237 -95 378 50 192 254
324 445 287 130 -24 243 -112 299 -230 22 -48 26 -68 26 -160 0 -99 -2 -109
-33 -172 -22 -45 -52 -84 -94 -123 l-61 -57 13 -71 c34 -194 130 -351 236
-388 129 -44 283 16 347 136 l22 40 0 765 0 765 -27 80 c-85 248 -274 420
-538 486 -118 30 -310 23 -417 -14 -117 -41 -193 -87 -269 -162 -89 -87 -139
-165 -198 -303 -135 -320 -196 -626 -196 -982 0 -509 138 -972 414 -1385 157
-236 323 -411 588 -621 353 -280 592 -560 774 -908 155 -297 250 -591 300
-931 14 -91 18 -227 21 -780 4 -593 3 -681 -12 -769 -32 -188 -110 -341 -245
-476 -287 -286 -723 -347 -1066 -148 -108 62 -255 193 -371 332 l-75 89 -177
-2 c-157 -2 -191 0 -303 24 -153 31 -242 61 -371 126 -239 119 -419 277 -562
494 -57 86 -124 221 -122 245 0 3 -6 16 -13 30 -8 15 -13 56 -13 105 0 78 0
79 -6 20 l-6 -60 -13 43 c-9 31 -13 145 -13 430 1 397 4 450 27 459 8 3 14 17
14 31 0 38 41 143 53 135 6 -3 7 -1 3 5 -14 23 82 182 188 310 l60 74 3 89 c2
81 5 96 39 160 24 44 56 87 90 117 194 173 500 110 616 -126 31 -62 33 -74 33
-167 0 -91 -3 -106 -31 -165 -70 -148 -214 -235 -379 -228 l-69 3 -58 -75
c-285 -369 -289 -866 -9 -1238 123 -162 288 -281 486 -349 98 -34 285 -66 285
-49 0 3 -16 53 -35 113 -146 455 -124 926 61 1361 l45 105 -28 61 c-25 55 -28
72 -27 161 0 85 4 108 26 155 40 85 107 154 195 197 71 35 82 38 167 37 81 0
98 -3 158 -31 90 -42 160 -109 201 -192 30 -61 32 -72 32 -171 0 -93 -3 -112
-27 -162 -47 -100 -162 -199 -259 -222 -21 -4 -33 -22 -64 -88 -46 -101 -88
-233 -112 -353 -27 -137 -24 -396 5 -537 65 -307 192 -548 402 -759 120 -122
176 -161 274 -191 206 -63 444 56 530 265 21 51 21 65 24 682 2 418 -1 669 -8
745 -43 438 -218 873 -488 1211 -128 162 -242 270 -478 454 -109 85 -309 279
-413 400 -347 403 -570 885 -668 1445 -26 148 -28 170 -27 475 0 303 1 328 27
470 15 83 40 204 57 269 16 66 30 122 30 126 0 13 -120 -11 -223 -45 -161 -52
-289 -118 -429 -222 -64 -48 -268 -247 -268 -261 0 -5 -6 -15 -14 -21 -12 -10
-15 30 -16 287 l-1 299 58 50 c230 198 636 354 966 370 l118 6 54 81 c101 151
209 254 368 349 237 144 553 198 839 143z m2802 -268 c9 -12 16 -31 16 -41 0
-10 -28 -75 -61 -145 -78 -161 -111 -234 -107 -237 2 -1 47 -25 101 -54 333
-176 604 -378 893 -666 195 -194 302 -320 439 -514 380 -541 602 -1132 676
-1801 18 -158 20 -226 16 -460 -7 -345 -32 -551 -108 -860 -25 -102 -102 -345
-131 -415 -89 -216 -138 -314 -138 -277 0 10 -5 10 -21 1 -12 -6 -19 -7 -16
-2 3 5 -14 18 -39 28 -24 10 -44 22 -44 27 0 5 -5 6 -10 3 -12 -7 -90 34 -90
48 0 5 -7 7 -15 3 -16 -6 -25 -2 -183 77 -52 26 -99 47 -106 47 -22 0 -37 22
-25 37 7 7 9 13 5 13 -4 0 0 13 8 29 17 32 23 49 90 236 175 492 224 1002 146
1530 -129 879 -641 1681 -1394 2184 -114 77 -313 191 -332 191 -6 0 -50 -81
-98 -180 -71 -149 -90 -181 -111 -186 -50 -13 -68 3 -161 138 -50 73 -219 320
-376 548 -372 542 -358 521 -358 551 0 14 8 33 19 43 21 19 15 19 441 51 179
14 435 34 570 45 335 27 326 26 412 28 69 2 78 0 92 -20z m-5231 -1363 c-3 -9
-8 -14 -10 -11 -3 3 -2 9 2 15 9 16 15 13 8 -4z m2 -1565 c3 -5 1 -10 -4 -10
-6 0 -11 5 -11 10 0 6 2 10 4 10 3 0 8 -4 11 -10z m57 -307 l2 -268 6 253 c5
241 6 253 22 235 153 -160 282 -268 307 -257 94 39 161 43 257 13 116 -36 203
-111 252 -218 23 -48 26 -70 27 -156 0 -91 -3 -106 -31 -165 -101 -214 -357
-293 -561 -173 -89 52 -169 172 -180 266 -3 29 -11 57 -17 62 -7 6 -36 30 -64
54 l-52 45 0 304 c0 270 2 302 15 288 12 -12 15 -60 17 -283z m-6405 -6280
c20 -43 150 -321 290 -618 141 -297 268 -567 283 -600 15 -33 124 -265 242
-515 388 -823 430 -912 425 -916 -2 -2 -351 -3 -775 -2 l-770 3 116 258 116
257 208 0 c121 0 208 4 208 9 0 5 -63 151 -141 323 -213 473 -243 538 -245
535 -2 -2 -93 -202 -400 -880 -107 -235 -203 -446 -214 -467 l-20 -40 -330 0
-331 0 15 28 c15 30 700 1475 751 1587 18 39 56 120 85 180 29 61 69 146 90
190 21 44 59 125 85 180 26 55 65 138 87 185 23 47 61 128 85 180 25 52 56
119 69 148 13 28 26 52 30 52 3 0 21 -35 41 -77z m2628 26 c266 -33 451 -123
640 -313 89 -90 190 -228 179 -247 -2 -3 -114 -55 -249 -114 l-246 -108 -72
75 c-131 136 -238 188 -387 188 -148 0 -311 -69 -370 -156 -21 -32 -25 -49
-25 -110 0 -70 2 -74 35 -109 66 -68 131 -98 388 -176 194 -59 377 -127 477
-177 239 -119 402 -278 467 -458 30 -82 37 -280 14 -379 -85 -363 -469 -618
-966 -641 -170 -8 -289 6 -424 50 -196 65 -350 159 -496 306 -80 79 -229 275
-218 286 2 1 120 55 263 119 l260 117 20 -28 c111 -153 269 -272 410 -309 110
-28 287 -12 391 36 27 13 74 48 105 79 47 47 59 65 69 111 17 78 2 128 -58
188 -64 63 -140 101 -312 156 -539 173 -683 240 -843 394 -141 134 -190 241
-190 406 0 219 94 413 279 576 208 182 547 276 859 238z m12765 -15 c445 -76
841 -368 1030 -759 94 -193 132 -356 133 -570 1 -167 -16 -281 -64 -429 -154
-470 -547 -815 -1055 -926 -125 -27 -334 -36 -472 -21 -473 52 -899 336 -1110
740 -62 117 -92 197 -123 321 -21 84 -24 118 -24 300 0 182 3 216 24 300 103
412 364 731 755 920 278 135 592 178 906 124z m3048 15 c193 -21 330 -59 492
-135 388 -184 671 -532 762 -941 19 -81 22 -129 22 -283 0 -166 -2 -197 -26
-295 -158 -662 -758 -1102 -1463 -1072 -846 35 -1469 759 -1349 1565 27 187
103 383 209 542 286 427 830 677 1353 619z m-19678 -374 l0 -265 -897 2 -898
3 -3 263 -2 262 900 0 900 0 0 -265z m6900 -25 l0 -280 -325 0 -325 0 0 -1000
0 -1000 -295 0 -295 0 0 1000 0 1000 -325 0 -325 0 0 280 0 280 945 0 945 0 0
-280z m2645 253 c374 -86 609 -309 670 -638 23 -122 16 -346 -14 -460 -61
-231 -203 -397 -421 -492 -41 -18 -75 -37 -75 -42 0 -8 166 -254 478 -709 60
-86 113 -165 118 -174 9 -17 -10 -18 -344 -18 l-354 0 -289 425 c-159 234
-360 530 -447 657 l-158 233 298 6 c310 6 348 11 434 54 123 63 189 225 156
387 -25 125 -87 196 -210 243 -47 17 -84 19 -384 23 l-333 3 0 -1015 0 -1016
-310 0 -310 0 0 1281 0 1280 703 -4 c665 -3 707 -4 792 -24z m2825 -233 l0
-260 -895 0 -895 0 0 260 0 260 895 0 895 0 0 -260z m1710 232 c168 -51 320
-150 416 -270 63 -80 130 -221 149 -314 42 -215 -13 -449 -143 -605 -29 -34
-52 -65 -52 -69 0 -3 22 -30 48 -59 127 -139 188 -386 148 -597 -52 -271 -250
-489 -531 -586 l-80 -27 -642 -3 -643 -3 0 1281 0 1281 628 -3 c618 -4 628 -4
702 -26z m8950 -252 l0 -280 -325 0 -325 0 0 -1000 0 -1000 -295 0 -295 0 0
1000 0 1000 -325 0 -325 0 0 280 0 280 945 0 945 0 0 -280z m-23030 -955 l0
-245 -600 0 -600 0 0 -540 0 -540 -300 0 -300 0 0 785 0 785 900 0 900 0 0
-245z m12040 -10 l0 -245 -430 0 -430 0 0 -280 0 -280 595 0 595 0 0 -255 0
-255 -895 0 -895 0 0 780 0 780 730 0 730 0 0 -245z m-10149 -2866 c44 -14
107 -63 118 -93 26 -68 26 -66 -26 -66 -43 0 -50 3 -65 29 -24 44 -71 64 -135
59 -85 -7 -131 -69 -103 -138 16 -39 41 -54 146 -85 161 -49 207 -91 208 -190
2 -110 -79 -186 -204 -193 -85 -5 -155 17 -197 61 -38 40 -53 68 -53 101 0 24
4 26 43 26 41 0 44 -2 61 -41 46 -104 221 -100 256 5 9 27 8 42 -4 69 -17 42
-41 55 -161 92 -112 34 -150 57 -175 106 -50 98 3 218 115 257 41 14 129 14
176 1z m3693 -28 c73 -36 122 -87 157 -166 34 -76 33 -210 -3 -286 -35 -76
-88 -133 -156 -166 -50 -25 -68 -28 -152 -28 -118 0 -177 24 -245 96 -72 77
-90 125 -90 244 0 86 3 107 24 150 34 68 85 122 145 152 71 36 100 43 183 39
57 -2 86 -10 137 -35z m2332 3 c65 -33 128 -97 157 -162 17 -38 22 -67 22
-147 0 -119 -17 -166 -90 -244 -68 -72 -127 -96 -245 -96 -84 0 -102 3 -152
28 -68 33 -121 90 -156 166 -36 76 -38 211 -4 284 64 141 180 211 335 203 60
-3 91 -11 133 -32z m2277 8 c61 -27 133 -95 165 -157 25 -45 27 -60 27 -160 0
-97 -3 -115 -24 -155 -40 -76 -77 -115 -143 -151 -60 -32 -68 -34 -163 -34
-120 0 -172 21 -247 97 -64 65 -91 139 -92 243 0 69 4 90 31 146 46 99 122
164 220 189 57 14 175 5 226 -18z m4842 17 c47 -13 120 -82 131 -122 7 -32 6
-34 -21 -37 -44 -5 -75 1 -75 13 0 7 -13 26 -30 42 -23 22 -41 29 -83 33 -90
7 -139 -31 -139 -106 0 -53 38 -82 159 -121 118 -37 161 -63 185 -111 50 -100
-9 -223 -126 -260 -52 -17 -164 -8 -212 17 -50 25 -93 80 -101 126 l-6 37 47
0 c42 0 47 -2 60 -33 27 -66 99 -98 174 -78 56 16 87 53 87 106 0 66 -26 86
-156 126 -130 39 -182 76 -199 141 -20 72 9 157 65 194 64 42 160 55 240 33z
m1257 -22 c73 -33 142 -104 170 -176 32 -84 31 -207 -4 -282 -35 -76 -85 -129
-155 -165 -52 -26 -68 -29 -153 -29 -81 0 -103 4 -150 26 -69 33 -125 88 -159
159 -23 48 -26 67 -26 155 0 81 4 109 21 146 26 56 82 120 132 151 88 54 225
61 324 15z m3685 3 c61 -27 127 -91 161 -155 22 -42 27 -67 30 -150 4 -100 4
-100 -35 -175 -62 -121 -160 -180 -298 -180 -120 0 -221 52 -279 144 -46 71
-58 116 -58 207 0 63 5 90 27 136 44 97 127 169 222 193 59 14 175 5 230 -20z
m-19217 -12 c70 -33 133 -98 160 -168 25 -62 30 -178 12 -245 -17 -59 -65
-130 -113 -165 -68 -49 -123 -60 -296 -60 l-153 0 0 336 0 336 168 -4 c154 -4
171 -6 222 -30z m700 -3 l0 -35 -135 0 -135 0 0 -115 0 -115 120 0 120 0 0
-35 0 -35 -120 0 -120 0 0 -115 0 -115 135 0 135 0 0 -35 0 -35 -180 0 -180 0
0 335 0 335 180 0 180 0 0 -35z m1138 -2 l3 -33 -95 0 -96 0 0 -300 0 -300
-45 0 -45 0 0 300 0 300 -90 0 -90 0 0 35 0 35 228 -2 227 -3 3 -32z m212
-298 l0 -335 -45 0 -45 0 0 335 0 335 45 0 45 0 0 -335z m457 72 l173 -262 0
263 0 262 45 0 45 0 0 -335 0 -335 -45 0 -45 0 -173 262 -172 262 -3 -262 -2
-262 -45 0 -45 0 0 335 0 335 48 0 47 -1 172 -262z m746 246 c3 -10 19 -56 37
-103 29 -79 51 -140 159 -437 l40 -113 -49 0 -49 0 -22 70 -23 70 -151 -2
-150 -3 -24 -67 -23 -68 -49 0 -49 0 11 28 c6 15 58 157 115 316 58 159 109
297 115 307 14 27 104 27 112 2z m707 -18 l0 -34 -92 -3 -93 -3 -3 -297 -2
-298 -45 0 -45 0 0 300 0 300 -90 0 -90 0 0 35 0 35 230 0 230 0 0 -35z m210
-300 l0 -335 -45 0 -45 0 0 328 c0 181 3 332 7 335 3 4 24 7 45 7 l38 0 0
-335z m1253 74 l172 -262 3 262 2 261 45 0 45 0 0 -335 0 -335 -48 0 c-38 0
-51 4 -58 19 -5 10 -81 127 -169 260 l-160 241 -3 -260 -2 -260 -45 0 -45 0 0
335 0 335 45 0 46 0 172 -261z m1157 226 l0 -35 -145 0 -145 0 0 -115 0 -115
115 0 115 0 0 -35 0 -35 -115 0 -115 0 0 -150 0 -150 -45 0 -45 0 0 335 0 335
190 0 190 0 0 -35z m1256 11 c59 -28 89 -65 104 -130 20 -90 -21 -180 -100
-218 -25 -12 -46 -22 -48 -23 -2 -2 28 -54 67 -118 105 -174 101 -157 39 -157
l-53 0 -79 135 -79 135 -53 0 -54 0 0 -135 0 -135 -45 0 -45 0 0 335 0 335
148 0 c134 0 152 -2 198 -24z m725 -138 c44 -90 82 -165 85 -167 2 -2 40 71
85 162 l81 167 49 0 49 0 -41 -81 c-22 -45 -72 -140 -110 -211 l-69 -130 0
-124 0 -124 -45 0 -45 0 0 126 0 127 -102 196 c-57 108 -104 202 -106 209 -2
8 11 12 42 12 l46 0 81 -162z m1311 -85 c3 -228 5 -251 23 -283 27 -46 76 -70
146 -70 67 0 115 27 141 80 16 30 18 67 18 278 l0 242 45 0 45 0 0 -241 c0
-161 -4 -255 -12 -283 -19 -63 -91 -130 -157 -146 -115 -27 -239 7 -292 81
-42 60 -49 108 -49 356 l0 233 44 0 45 0 3 -247z m944 223 c28 -13 60 -36 72
-50 75 -96 43 -246 -63 -298 -25 -12 -45 -25 -45 -29 0 -4 34 -64 75 -133 41
-69 75 -128 75 -132 0 -3 -24 -4 -52 -2 l-53 3 -75 130 -75 130 -53 3 -52 3 0
-135 0 -136 -45 0 -45 0 0 335 0 335 143 0 c128 0 147 -2 193 -24z m1024 -11
l0 -35 -90 0 -90 0 0 -300 0 -300 -50 0 -50 0 0 300 0 300 -90 0 -90 0 0 35 0
35 230 0 230 0 0 -35z m441 24 c166 -56 188 -286 34 -361 -25 -12 -45 -25 -45
-29 0 -5 34 -64 75 -132 41 -69 75 -128 75 -131 0 -4 -23 -6 -52 -4 l-52 3
-76 130 -76 130 -52 3 -52 3 0 -135 0 -136 -45 0 -45 0 0 335 0 335 139 0 c76
0 153 -5 172 -11z m620 -16 c32 -82 229 -627 229 -634 0 -14 -90 -11 -95 4 -2
6 -14 38 -25 70 l-21 57 -149 0 -148 0 -23 -67 -24 -68 -49 -3 c-40 -3 -48 -1
-43 12 3 8 55 151 116 318 60 167 112 311 116 321 5 13 19 17 56 17 45 0 51
-3 60 -27z m629 -236 l175 -262 3 263 2 262 45 0 45 0 0 -335 0 -335 -49 0
-48 0 -174 263 -174 262 -3 -262 -2 -263 -45 0 -45 0 0 335 0 335 48 0 47 0
175 -263z m1438 226 l3 -33 -150 0 -151 0 0 -115 0 -115 120 0 120 0 0 -35 0
-35 -120 0 -120 0 0 -150 0 -150 -45 0 -45 0 0 335 0 335 193 -2 192 -3 3 -32z
m1222 27 c48 -13 107 -64 125 -107 29 -69 13 -167 -36 -219 -11 -12 -38 -29
-60 -39 -21 -10 -39 -21 -39 -25 0 -4 36 -67 80 -139 l80 -132 -56 3 -57 3
-76 132 -76 132 -52 1 -53 0 0 -135 0 -135 -45 0 -45 0 0 335 0 335 138 0 c75
0 153 -4 172 -10z m520 -265 c68 -152 126 -272 130 -268 4 4 60 128 126 276
l119 267 47 0 48 0 0 -335 0 -335 -45 0 -45 0 -2 241 -3 240 -106 -238 -106
-238 -35 -3 -35 -3 -56 123 c-30 68 -79 177 -108 243 l-54 120 -3 -242 -2
-243 -45 0 -45 0 0 328 c0 181 3 332 7 335 3 4 25 7 48 7 l42 0 123 -275z
m1057 -40 c62 -170 116 -320 119 -332 6 -21 3 -23 -39 -23 l-46 0 -21 58 c-11
31 -23 63 -25 70 -3 9 -43 12 -153 12 l-149 0 -24 -70 -24 -70 -47 0 c-27 0
-48 2 -48 4 0 2 54 152 120 332 66 180 120 329 120 331 0 2 24 3 52 1 l53 -3
112 -310z m593 280 l0 -35 -90 0 -90 0 0 -300 0 -300 -45 0 -45 0 0 300 0 300
-95 0 -95 0 0 28 c0 16 3 32 7 35 3 4 107 7 230 7 l223 0 0 -35z m220 -300 l0
-335 -45 0 -45 0 0 335 0 335 45 0 45 0 0 -335z m1254 68 l176 -268 0 268 0
267 45 0 45 0 0 -335 0 -335 -48 0 c-48 0 -49 1 -82 53 -19 28 -96 146 -172
261 l-138 208 0 -261 0 -261 -45 0 -45 0 0 335 0 335 44 0 44 0 176 -267z"/>
<path d="M13674 22715 c0 -132 2 -185 3 -117 2 68 2 176 0 240 -1 64 -3 9 -3
-123z"/>
<path d="M13673 22425 c0 -22 2 -30 4 -17 2 12 2 30 0 40 -3 9 -5 -1 -4 -23z"/>
<path d="M13675 17930 c0 -217 1 -306 2 -197 2 108 2 286 0 395 -1 108 -2 19
-2 -198z"/>
<path d="M19960 18430 c0 -5 5 -10 11 -10 5 0 7 5 4 10 -3 6 -8 10 -11 10 -2
0 -4 -4 -4 -10z"/>
<path d="M13672 20125 c0 -16 2 -22 5 -12 2 9 2 23 0 30 -3 6 -5 -1 -5 -18z"/>
<path d="M22275 13601 c-349 -58 -616 -282 -700 -586 -24 -90 -30 -264 -12
-352 31 -146 95 -266 197 -376 340 -364 918 -371 1257 -14 88 93 146 190 185
309 28 84 31 106 31 223 1 148 -13 216 -68 332 -45 95 -85 153 -157 225 -107
107 -255 187 -409 223 -86 19 -252 27 -324 16z"/>
<path d="M25465 13604 c-208 -31 -374 -107 -506 -232 -300 -282 -326 -743 -60
-1059 259 -307 711 -392 1070 -201 273 144 431 403 431 704 0 124 -22 218 -75
329 -132 274 -409 449 -729 460 -56 2 -114 1 -131 -1z"/>
<path d="M19340 13285 l0 -276 293 3 c288 3 293 3 340 28 94 47 150 139 150
245 0 77 -34 146 -97 202 -76 67 -110 73 -417 73 l-269 0 0 -275z"/>
<path d="M19340 12256 l0 -276 276 0 c177 0 290 4 314 11 63 19 131 78 164
141 37 73 40 163 6 232 -26 55 -108 131 -158 148 -24 8 -134 13 -319 15 l-283
4 0 -275z"/>
<path d="M11363 9854 c-97 -36 -161 -155 -150 -281 14 -145 107 -233 247 -233
108 0 176 44 222 145 43 95 23 241 -45 313 -57 62 -187 88 -274 56z"/>
<path d="M13702 9857 c-54 -20 -103 -67 -131 -126 -21 -46 -26 -69 -25 -131 1
-46 7 -89 18 -112 23 -54 75 -108 121 -129 53 -25 157 -25 210 0 158 72 195
317 66 441 -27 26 -63 51 -87 58 -51 15 -128 14 -172 -1z"/>
<path d="M15997 9856 c-58 -21 -103 -61 -131 -118 -22 -43 -26 -66 -26 -132 0
-168 91 -266 245 -266 117 0 208 71 236 184 15 60 7 161 -16 209 -52 110 -190
165 -308 123z"/>
<path d="M22085 9854 c-84 -31 -144 -118 -153 -220 -14 -174 86 -294 244 -294
151 0 247 103 247 266 1 157 -100 264 -248 263 -27 0 -68 -7 -90 -15z"/>
<path d="M25779 9857 c-57 -21 -97 -54 -126 -104 -22 -39 -28 -62 -31 -133 -5
-96 10 -146 61 -206 90 -106 294 -97 376 17 41 55 54 108 49 194 -6 104 -51
180 -131 222 -42 21 -152 27 -198 10z"/>
<path d="M6497 9863 c-4 -3 -7 -123 -7 -265 l0 -258 95 0 c208 0 302 89 293
277 -8 175 -100 253 -301 253 -40 0 -77 -3 -80 -7z"/>
<path d="M9962 9758 c-41 -112 -92 -256 -92 -262 0 -3 52 -6 115 -6 63 0 115
4 115 9 0 14 -102 295 -110 304 -4 5 -17 -15 -28 -45z"/>
<path d="M14374 9857 c-2 -7 -3 -65 -2 -128 l3 -114 55 -3 c94 -6 140 6 178
44 33 33 34 37 30 94 -5 71 -22 94 -83 109 -62 16 -174 14 -181 -2z"/>
<path d="M17360 9740 l0 -132 88 4 c112 5 151 25 171 88 12 38 12 49 0 83 -23
64 -54 80 -164 85 l-95 4 0 -132z"/>
<path d="M18850 9740 l0 -132 88 4 c112 5 151 25 171 88 12 38 12 49 0 83 -23
64 -54 80 -164 85 l-95 4 0 -132z"/>
<path d="M19626 9810 c-3 -8 -30 -82 -59 -165 l-54 -150 115 -3 c63 -1 116 -1
118 1 2 2 -23 78 -55 168 -33 90 -62 157 -65 149z"/>
<path d="M22760 9739 l0 -132 95 5 c108 6 139 20 162 76 19 47 12 107 -18 138
-29 31 -77 44 -166 44 l-73 0 0 -131z"/>
<path d="M24368 9763 c-9 -27 -34 -99 -56 -160 l-40 -113 120 0 c98 0 119 3
115 14 -3 8 -29 80 -58 160 -28 80 -55 146 -58 146 -4 0 -14 -21 -23 -47z"/>
</g>
</svg>
